Coordinates
version=1
nRows=11
nColumns=63
inDegrees=yes

Units are S.I. units (second, meters, Newtons, ...)
If the header above contains a line with 'inDegrees', this indicates whether rotational values are in degrees (yes) or radians (no).

endheader
time	pelvis_tilt	pelvis_list	pelvis_rotation	pelvis_tx	pelvis_ty	pelvis_tz	hip_flexion_r	hip_adduction_r	hip_rotation_r	knee_angle_r	knee_angle_r_beta	ankle_angle_r	subtalar_angle_r	mtp_angle_r	hip_flexion_l	hip_adduction_l	hip_rotation_l	knee_angle_l	knee_angle_l_beta	ankle_angle_l	subtalar_angle_l	mtp_angle_l	L5_S1_Flex_Ext	L5_S1_Lat_Bending	L5_S1_axial_rotation	L4_L5_Flex_Ext	L4_L5_Lat_Bending	L4_L5_axial_rotation	L3_L4_Flex_Ext	L3_L4_Lat_Bending	L3_L4_axial_rotation	L2_L3_Flex_Ext	L2_L3_Lat_Bending	L2_L3_axial_rotation	L1_L2_Flex_Ext	L1_L2_Lat_Bending	L1_L2_axial_rotation	L1_T12_Flex_Ext	L1_T12_Lat_Bending	L1_T12_axial_rotation	Abs_r3	Abs_r2	Abs_r1	Abs_t1	Abs_t2	neck_flexion	neck_bending	neck_rotation	arm_flex_r	arm_add_r	arm_rot_r	elbow_flex_r	pro_sup_r	wrist_flex_r	wrist_dev_r	arm_flex_l	arm_add_l	arm_rot_l	elbow_flex_l	pro_sup_l	wrist_flex_l	wrist_dev_l
3.033333	3.169297	-1.463304	98.038612	0.246586	1.030994	0.377278	-3.870437	4.317358	5.995498	0.424514	0.007409	19.572303	-13.458368	0.000000	-0.352589	-5.408735	-7.275633	6.226146	0.108667	28.484717	14.466217	0.000000	-0.133385	0.335317	-1.223088	-0.247708	0.445972	-1.299531	-0.219137	0.815290	-1.299531	-0.152445	0.815290	-1.070202	-0.123861	0.683778	-0.993759	-0.076216	0.519406	-0.917316	-0.952752	3.793173	-6.802450	0.000000	0.000000	19.037168	-2.385543	-2.413693	31.381545	-1.562184	22.696978	148.689092	88.344386	-0.140944	5.627976	26.384343	0.613276	25.615058	148.411232	89.272200	-1.791173	-3.989704
3.050000	3.291565	-1.400041	98.192957	0.246266	1.030848	0.377489	-3.903438	4.436847	5.869759	0.396824	0.006926	19.643529	-13.417790	0.000000	-0.433179	-5.538880	-6.850110	6.094609	0.106371	28.536149	14.401177	0.000000	-0.137805	0.353804	-1.270794	-0.255918	0.470560	-1.350219	-0.226400	0.860240	-1.350219	-0.157497	0.860240	-1.111945	-0.127966	0.721478	-1.032520	-0.078742	0.548043	-0.953096	-0.984328	4.002305	-7.067777	0.000000	0.000000	18.764479	-2.391719	-2.226018	31.715827	-1.465293	22.655984	148.541511	88.342942	0.034385	5.887470	26.558287	0.740213	25.273895	148.397687	89.296337	-1.240860	-3.721698
3.066667	3.400401	-1.308398	98.386184	0.245911	1.030721	0.377807	-3.965676	4.554073	5.747006	0.372335	0.006498	19.682070	-13.471937	0.000000	-0.537886	-5.653307	-6.288328	5.929337	0.103486	28.590626	14.261868	0.000000	-0.145844	0.368708	-1.320355	-0.270847	0.490381	-1.402877	-0.239607	0.896476	-1.402877	-0.166685	0.896476	-1.155311	-0.135431	0.751869	-1.072789	-0.083335	0.571128	-0.990266	-1.041750	4.170897	-7.343420	0.000000	0.000000	18.415733	-2.312557	-2.137446	32.113548	-1.370350	22.310100	148.356357	88.362738	0.443339	6.193432	26.815744	0.976236	24.547188	148.407943	89.320386	0.205469	-3.133063
3.083333	3.492808	-1.190636	98.607529	0.245556	1.030626	0.378237	-4.056142	4.665283	5.607579	0.351828	0.006141	19.705849	-13.558796	0.000000	-0.665688	-5.748538	-5.588243	5.728687	0.099984	28.639498	14.012229	0.000000	-0.157189	0.379592	-1.367504	-0.291916	0.504857	-1.452973	-0.258246	0.922939	-1.452973	-0.179651	0.922939	-1.196566	-0.145966	0.774064	-1.111097	-0.089818	0.587988	-1.025628	-1.122785	4.294018	-7.605648	0.000000	0.000000	18.007304	-2.178483	-2.158890	32.558198	-1.312127	21.663547	148.161948	88.407684	0.897545	6.500878	27.139560	1.238097	23.646446	148.355819	89.356745	1.761046	-2.927724
3.100000	3.570309	-1.052868	98.843177	0.245212	1.030564	0.378764	-4.170133	4.768930	5.435257	0.336165	0.005867	19.732520	-13.616650	0.000000	-0.805249	-5.829614	-4.884711	5.511132	0.096187	28.704422	13.779984	0.000000	-0.171617	0.386733	-1.412543	-0.318709	0.514355	-1.500827	-0.281949	0.940303	-1.500827	-0.196141	0.940303	-1.235975	-0.159363	0.788626	-1.147691	-0.098062	0.599049	-1.059407	-1.225841	4.374801	-7.856139	0.000000	0.000000	17.591043	-1.982205	-2.250986	33.036623	-1.317537	20.718550	147.978384	88.480013	1.309477	6.786187	27.456197	1.488392	22.538875	148.262621	89.436061	3.161611	-3.193309
3.116667	3.631172	-0.914677	99.055479	0.244912	1.030523	0.379328	-4.291126	4.856153	5.239719	0.327897	0.005723	19.780841	-13.590648	0.000000	-0.947014	-5.892046	-4.221331	5.277125	0.092103	28.766278	13.558444	0.000000	-0.186534	0.389856	-1.448034	-0.346412	0.518509	-1.538536	-0.306457	0.947896	-1.538536	-0.213190	0.947896	-1.267030	-0.173216	0.794994	-1.176528	-0.106586	0.603887	-1.086025	-1.332394	4.410130	-8.053530	0.000000	0.000000	17.219656	-1.729500	-2.422548	33.484331	-1.410570	19.467318	147.831391	88.590847	1.578216	7.026505	27.673787	1.691434	21.163469	148.183994	89.650020	4.268530	-3.701080
3.133333	3.671273	-0.792467	99.245629	0.244649	1.030485	0.379874	-4.408293	4.918374	5.047792	0.325933	0.005689	19.857809	-13.496275	0.000000	-1.079335	-5.928883	-3.621513	5.026308	0.087726	28.811621	13.357358	0.000000	-0.200857	0.388692	-1.469818	-0.373012	0.516960	-1.561681	-0.329988	0.945065	-1.561681	-0.229560	0.945065	-1.286090	-0.186516	0.792620	-1.194227	-0.114770	0.602083	-1.102363	-1.434703	4.396957	-8.174684	0.000000	0.000000	17.005407	-1.451358	-2.666546	33.783888	-1.628045	17.895218	147.749817	88.778878	1.617210	7.173278	27.739885	1.798412	19.531668	148.174734	89.971756	4.844814	-4.132267
3.150000	3.682086	-0.717343	99.400495	0.244449	1.030427	0.380305	-4.497036	4.940427	4.836523	0.330439	0.005767	19.971006	-13.281919	0.000000	-1.178738	-5.929357	-3.117592	4.765074	0.083166	28.813600	13.180711	0.000000	-0.209980	0.382378	-1.471861	-0.389955	0.508563	-1.563852	-0.344977	0.929715	-1.563852	-0.239987	0.929715	-1.287878	-0.194988	0.779746	-1.195887	-0.119983	0.592304	-1.103896	-1.499869	4.325541	-8.186048	0.000000	0.000000	17.005344	-1.160267	-2.936986	33.775801	-1.986848	15.999679	147.748325	89.094157	1.369214	7.280001	27.598435	1.757905	17.648021	148.264361	90.331436	4.772258	-4.206676
3.166667	3.661267	-0.712154	99.497569	0.244328	1.030329	0.380549	-4.538126	4.915048	4.701782	0.339652	0.005928	20.069923	-13.076719	0.000000	-1.229295	-5.888644	-2.754026	4.497902	0.078503	28.754447	13.041739	0.000000	-0.210239	0.371048	-1.441640	-0.390435	0.493494	-1.531742	-0.345402	0.902166	-1.531742	-0.240282	0.902166	-1.261435	-0.195228	0.756641	-1.171332	-0.120131	0.574753	-1.081230	-1.501717	4.197370	-8.017968	0.000000	0.000000	17.241701	-0.955907	-3.266256	33.294329	-2.514509	13.770034	147.815603	89.380426	0.798891	7.407356	27.247750	1.528390	15.617979	148.377752	90.330619	4.036517	-4.002901
3.183333	3.575240	-0.780923	99.532587	0.244364	1.030201	0.380549	-4.535067	4.809089	4.639661	0.353494	0.006170	20.151415	-12.869588	0.000000	-1.233110	-5.775321	-2.537020	4.229553	0.073820	28.604016	12.924635	0.000000	-0.201491	0.348609	-1.374143	-0.374190	0.463650	-1.460026	-0.331030	0.847608	-1.460026	-0.230284	0.847608	-1.202375	-0.187105	0.710884	-1.116491	-0.115132	0.539995	-1.030607	-1.439232	3.943535	-7.642569	0.000000	0.000000	17.697443	-0.797025	-3.721240	32.230124	-3.190775	11.224183	147.882471	89.524138	-0.110222	7.633209	26.729092	1.081908	13.538369	148.416683	89.906803	2.664570	-3.496421
3.200000	3.433219	-0.933534	99.494369	0.244569	1.030044	0.380294	-4.473172	4.629522	4.670056	0.371738	0.006488	20.182178	-12.697276	0.000000	-1.180295	-5.599866	-2.491437	3.962413	0.069157	28.349784	12.848158	0.000000	-0.181869	0.317170	-1.271900	-0.337749	0.421837	-1.351394	-0.298792	0.771168	-1.351394	-0.207858	0.771168	-1.112912	-0.168883	0.646774	-1.033419	-0.103920	0.491297	-0.953925	-1.299071	3.587894	-7.073925	0.000000	0.000000	18.371799	-0.736899	-4.237435	30.573687	-3.995860	8.480606	147.836242	89.330969	-1.396999	8.111772	26.054438	0.422143	11.468996	148.253417	89.026635	0.841431	-2.883538
